HIERARCHY
ROOT Hips
{
	OFFSET 0.000000 121.760803 0.000000
	CHANNELS 6 Xposition Yposition Zposition Xrotation Yrotation Zrotation 
	JOINT Spine
	{
		OFFSET 0.072000 7.257294 -0.789700
		CHANNELS 3 Xrotation Yrotation Zrotation
		JOINT Spine1
		{
			OFFSET 0.000000 12.508769 -0.658067
			CHANNELS 3 Xrotation Yrotation Zrotation
			JOINT Spine1_split
			{
				OFFSET 0.000000 12.508769 -0.658067
				CHANNELS 3 Xrotation Yrotation Zrotation
				JOINT Spine2
				{
					OFFSET 0.000000 12.508769 -0.658067
					CHANNELS 3 Xrotation Yrotation Zrotation
					JOINT Neck
					{
						OFFSET 0.000000 14.033295 7.520400
						CHANNELS 3 Xrotation Yrotation Zrotation
						JOINT Head
						{
							OFFSET 0.000000 8.198502 5.703100
							CHANNELS 3 Xrotation Yrotation Zrotation
							JOINT HeadTop_End
							{
								OFFSET 0.000000 17.760803 13.332701
								CHANNELS 3 Xrotation Yrotation Zrotation
								End Site
								{
									OFFSET 0.000000 0.000000 0.000000
								}
							}
						}
					}
					JOINT LeftShoulder
					{
						OFFSET 6.292450 5.785301 -0.669000
						CHANNELS 3 Xrotation Yrotation Zrotation
						JOINT LeftShoulder_split
						{
							OFFSET 6.292450 5.785301 -0.669000
							CHANNELS 3 Xrotation Yrotation Zrotation
							JOINT LeftArm
							{
								OFFSET 13.907140 -6.093903 1.965100
								CHANNELS 3 Xrotation Yrotation Zrotation
								JOINT LeftForeArm
								{
									OFFSET 34.140198 0.000000 0.000000
									CHANNELS 3 Xrotation Yrotation Zrotation
									JOINT LeftHand
									{
										OFFSET 40.960209 0.000000 0.000000
										CHANNELS 3 Xrotation Yrotation Zrotation
										JOINT LeftHandThumb1
										{
											OFFSET 10.006996 -7.170425 9.573125
											CHANNELS 3 Xrotation Yrotation Zrotation
											JOINT LeftHandThumb2
											{
												OFFSET 1.835007 -1.059448 1.059443
												CHANNELS 3 Xrotation Yrotation Zrotation
												JOINT LeftHandThumb3
												{
													OFFSET 2.112267 -1.219513 1.219518
													CHANNELS 3 Xrotation Yrotation Zrotation
													JOINT LeftHandThumb4
													{
														OFFSET 4.843811 -2.796570 2.796576
														CHANNELS 3 Xrotation Yrotation Zrotation
														End Site
														{
															OFFSET 0.000000 0.000000 0.000000
														}
													}
												}
											}
										}
										JOINT LeftHandIndex1
										{
											OFFSET 18.389847 -0.922348 4.596882
											CHANNELS 3 Xrotation Yrotation Zrotation
											JOINT LeftHandIndex2
											{
												OFFSET 4.711273 0.000000 0.000000
												CHANNELS 3 Xrotation Yrotation Zrotation
												JOINT LeftHandIndex3
												{
													OFFSET 2.886131 0.000000 0.000000
													CHANNELS 3 Xrotation Yrotation Zrotation
													JOINT LeftHandIndex4
													{
														OFFSET 6.145912 0.000000 0.000000
														CHANNELS 3 Xrotation Yrotation Zrotation
														End Site
														{
															OFFSET 0.000000 0.000000 0.000000
														}
													}
												}
											}
										}
										JOINT LeftHandMiddle1
										{
											OFFSET 18.013008 0.000000 0.000000
											CHANNELS 3 Xrotation Yrotation Zrotation
											JOINT LeftHandMiddle2
											{
												OFFSET 4.946693 0.000000 0.000000
												CHANNELS 3 Xrotation Yrotation Zrotation
												JOINT LeftHandMiddle3
												{
													OFFSET 3.342232 0.000000 0.000000
													CHANNELS 3 Xrotation Yrotation Zrotation
													JOINT LeftHandMiddle4
													{
														OFFSET 4.461754 0.000000 0.000000
														CHANNELS 3 Xrotation Yrotation Zrotation
														End Site
														{
															OFFSET 0.000000 0.000000 0.000000
														}
													}
												}
											}
										}
										JOINT LeftHandRing1
										{
											OFFSET 15.849892 -0.102921 -4.126150
											CHANNELS 3 Xrotation Yrotation Zrotation
											JOINT LeftHandRing2
											{
												OFFSET 3.527054 0.000000 0.000000
												CHANNELS 3 Xrotation Yrotation Zrotation
												JOINT LeftHandRing3
												{
													OFFSET 2.961098 0.000000 0.000000
													CHANNELS 3 Xrotation Yrotation Zrotation
													JOINT LeftHandRing4
													{
														OFFSET 4.927200 0.000000 0.000000
														CHANNELS 3 Xrotation Yrotation Zrotation
														End Site
														{
															OFFSET 0.000000 0.000000 0.000000
														}
													}
												}
											}
										}
										JOINT LeftHandPinky1
										{
											OFFSET 12.791824 -0.832031 -6.799156
											CHANNELS 3 Xrotation Yrotation Zrotation
											JOINT LeftHandPinky2
											{
												OFFSET 3.327133 0.000000 0.000000
												CHANNELS 3 Xrotation Yrotation Zrotation
												JOINT LeftHandPinky3
												{
													OFFSET 3.014900 0.000000 0.000000
													CHANNELS 3 Xrotation Yrotation Zrotation
													JOINT LeftHandPinky4
													{
														OFFSET 5.847786 0.000000 0.000000
														CHANNELS 3 Xrotation Yrotation Zrotation
														End Site
														{
															OFFSET 0.000000 0.000000 0.000000
														}
													}
												}
											}
										}
									}
								}
							}
						}
					}
					JOINT RightShoulder
					{
						OFFSET -6.292450 5.785301 -0.669000
						CHANNELS 3 Xrotation Yrotation Zrotation
						JOINT RightShoulder_split
						{
							OFFSET -6.292450 5.785301 -0.669000
							CHANNELS 3 Xrotation Yrotation Zrotation
							JOINT RightArm
							{
								OFFSET -13.907140 -6.093903 1.965100
								CHANNELS 3 Xrotation Yrotation Zrotation
								JOINT RightForeArm
								{
									OFFSET -34.140198 0.000000 0.000000
									CHANNELS 3 Xrotation Yrotation Zrotation
									JOINT RightHand
									{
										OFFSET -40.960209 0.000000 0.000000
										CHANNELS 3 Xrotation Yrotation Zrotation
										JOINT RightHandThumb1
										{
											OFFSET -10.007050 -7.170456 9.573117
											CHANNELS 3 Xrotation Yrotation Zrotation
											JOINT RightHandThumb2
											{
												OFFSET -1.835007 -1.059448 1.059443
												CHANNELS 3 Xrotation Yrotation Zrotation
												JOINT RightHandThumb3
												{
													OFFSET -2.112267 -1.219513 1.219518
													CHANNELS 3 Xrotation Yrotation Zrotation
													JOINT RightHandThumb4
													{
														OFFSET -4.843834 -2.796585 2.796590
														CHANNELS 3 Xrotation Yrotation Zrotation
														End Site
														{
															OFFSET 0.000000 0.000000 0.000000
														}
													}
												}
											}
										}
										JOINT RightHandIndex1
										{
											OFFSET -18.389870 -0.922424 4.596786
											CHANNELS 3 Xrotation Yrotation Zrotation
											JOINT RightHandIndex2
											{
												OFFSET -4.711273 0.000000 0.000000
												CHANNELS 3 Xrotation Yrotation Zrotation
												JOINT RightHandIndex3
												{
													OFFSET -2.886131 0.000000 0.000000
													CHANNELS 3 Xrotation Yrotation Zrotation
													JOINT RightHandIndex4
													{
														OFFSET -6.145920 0.000000 0.000000
														CHANNELS 3 Xrotation Yrotation Zrotation
														End Site
														{
															OFFSET 0.000000 0.000000 0.000000
														}
													}
												}
											}
										}
										JOINT RightHandMiddle1
										{
											OFFSET -18.013008 0.000000 0.000000
											CHANNELS 3 Xrotation Yrotation Zrotation
											JOINT RightHandMiddle2
											{
												OFFSET -4.946693 0.000000 0.000000
												CHANNELS 3 Xrotation Yrotation Zrotation
												JOINT RightHandMiddle3
												{
													OFFSET -3.342232 0.000000 0.000000
													CHANNELS 3 Xrotation Yrotation Zrotation
													JOINT RightHandMiddle4
													{
														OFFSET -4.461754 0.000000 0.000000
														CHANNELS 3 Xrotation Yrotation Zrotation
														End Site
														{
															OFFSET 0.000000 0.000000 0.000000
														}
													}
												}
											}
										}
										JOINT RightHandRing1
										{
											OFFSET -15.849876 -0.102936 -4.126237
											CHANNELS 3 Xrotation Yrotation Zrotation
											JOINT RightHandRing2
											{
												OFFSET -3.527054 0.000000 0.000000
												CHANNELS 3 Xrotation Yrotation Zrotation
												JOINT RightHandRing3
												{
													OFFSET -2.961098 0.000000 0.000000
													CHANNELS 3 Xrotation Yrotation Zrotation
													JOINT RightHandRing4
													{
														OFFSET -4.927200 0.000000 0.000000
														CHANNELS 3 Xrotation Yrotation Zrotation
														End Site
														{
															OFFSET 0.000000 0.000000 0.000000
														}
													}
												}
											}
										}
										JOINT RightHandPinky1
										{
											OFFSET -12.791786 -0.832077 -6.799222
											CHANNELS 3 Xrotation Yrotation Zrotation
											JOINT RightHandPinky2
											{
												OFFSET -3.327133 0.000000 0.000000
												CHANNELS 3 Xrotation Yrotation Zrotation
												JOINT RightHandPinky3
												{
													OFFSET -3.014900 0.000000 0.000000
													CHANNELS 3 Xrotation Yrotation Zrotation
													JOINT RightHandPinky4
													{
														OFFSET -5.847786 0.000000 0.000000
														CHANNELS 3 Xrotation Yrotation Zrotation
														End Site
														{
															OFFSET 0.000000 0.000000 0.000000
														}
													}
												}
											}
										}
									}
								}
							}
						}
					}
				}
			}
		}
	}
	JOINT LeftUpLeg
	{
		OFFSET 13.026900 -6.336304 -1.092800
		CHANNELS 3 Xrotation Yrotation Zrotation
		JOINT LeftLeg
		{
			OFFSET 0.524474 -46.096886 9.782700
			CHANNELS 3 Xrotation Yrotation Zrotation
			JOINT LeftFoot
			{
				OFFSET -0.524474 -53.427422 -12.948200
				CHANNELS 3 Xrotation Yrotation Zrotation
				JOINT LeftToeBase
				{
					OFFSET 0.192200 -14.009700 16.364100
					CHANNELS 3 Xrotation Yrotation Zrotation
					JOINT LeftToe_End
					{
						OFFSET -1.784700 -0.561700 9.474800
						CHANNELS 3 Xrotation Yrotation Zrotation
						End Site
						{
							OFFSET 0.000000 0.000000 0.000000
						}
					}
				}
			}
		}
	}
	JOINT RightUpLeg
	{
		OFFSET -12.883000 -6.336304 -1.092800
		CHANNELS 3 Xrotation Yrotation Zrotation
		JOINT RightLeg
		{
			OFFSET -0.524587 -46.096825 9.782800
			CHANNELS 3 Xrotation Yrotation Zrotation
			JOINT RightFoot
			{
				OFFSET 0.524587 -53.427383 -12.948300
				CHANNELS 3 Xrotation Yrotation Zrotation
				JOINT RightToeBase
				{
					OFFSET -0.192200 -14.009700 16.364100
					CHANNELS 3 Xrotation Yrotation Zrotation
					JOINT RightToe_End
					{
						OFFSET 1.784700 -0.561700 9.474800
						CHANNELS 3 Xrotation Yrotation Zrotation
						End Site
						{
							OFFSET 0.000000 0.000000 0.000000
						}
					}
				}
			}
		}
	}
}
MOTION
Frames: 4
Frame Time: 0.016667
-1.111156 101.148857 0.434558 3.032228 -58.328470 6.707845 11.191929 0.157681 -2.923538 8.434587 0.027680 -5.592313 0.000000 0.000000 0.000000 8.457034 0.027899 -5.591875 -21.555838 25.063359 12.062742 -0.293897 25.465792 -3.209030 -0.000000 0.000000 -0.000001 -6.221628 -11.503786 -4.023771 0.000000 0.000000 0.000000 -23.062212 9.568431 -36.639652 0.046074 -43.168909 -0.011183 22.743797 -5.686018 15.979364 -1.064245 -7.954957 8.490071 2.373403 19.986141 -2.038324 0.808203 1.237757 2.631756 0.000000 -0.000000 0.000002 13.340869 -1.006685 10.682282 -0.167585 0.303374 -31.105662 -0.143377 0.303615 -32.256234 0.000000 0.000000 -0.000001 8.495431 -0.329587 -0.915332 0.231486 0.661185 -29.901865 0.444139 0.213474 -44.357021 -0.000000 0.000001 0.000001 6.111734 3.150928 -16.210942 0.047042 0.322399 -30.125488 0.408812 0.818961 -42.140665 0.000001 0.000000 -0.000001 -5.636037 7.709848 -13.878631 0.224348 0.276579 -46.588351 0.261291 0.249387 -46.286860 0.000002 -0.000000 -0.000000 -5.488215 10.658239 2.466474 0.000000 0.000000 0.000000 -41.473896 -26.755560 30.079047 24.955672 111.862871 -23.308722 -8.702504 12.423158 -9.801869 0.265008 10.061095 -10.888489 1.383767 -17.412857 3.016249 3.342366 -13.253729 -8.262778 0.000001 -0.000000 0.000001 19.443626 11.174428 -13.340200 -0.118653 -0.322728 18.035582 -0.089913 -0.286607 23.256611 -0.000000 0.000001 -0.000001 4.320491 2.436958 -4.811731 0.349141 -0.461243 26.890332 0.467498 0.154061 39.044845 -0.000001 0.000002 -0.000000 -7.005635 -10.695144 5.719827 0.111885 -0.089175 26.155882 0.451305 -0.473584 33.265050 0.000002 0.000000 -0.000001 -19.433539 -20.238224 5.987848 0.223763 -0.085789 36.844588 0.260793 -0.047518 36.471673 -0.000000 0.000002 0.000001 -36.056722 9.366559 25.451279 41.733088 -7.555478 -9.726226 -7.259304 -2.461504 -9.583403 -0.327605 1.238450 0.837249 0.000000 0.000002 -0.000000 -33.212526 -7.748649 -26.039896 46.179411 2.592494 -7.371244 -16.829888 3.006011 21.138778 -0.322816 -0.997457 -0.837141 0.000000 0.000000 -0.000000 
-1.176697 101.202034 0.669605 2.515091 -58.310711 5.898486 11.159604 0.134954 -2.953497 8.343011 -0.023352 -5.688291 0.000000 0.000000 0.000000 8.371670 0.015601 -5.630541 -20.102591 24.801800 13.023840 -0.857427 25.691087 -3.215343 0.000001 -0.000000 -0.000001 -6.221587 -11.502582 -4.090418 0.000000 0.000000 0.000000 -23.051559 9.454040 -36.707400 0.206698 -43.116365 0.092956 22.538456 -5.934237 15.432493 -0.983725 -7.447190 8.678389 2.534436 20.452382 -1.857956 0.923809 1.716423 2.859949 0.000001 -0.000000 0.000002 13.342565 -1.008440 10.138458 -0.166781 0.303619 -31.649614 -0.141257 0.302897 -32.800245 0.000001 -0.000000 0.000001 8.486653 -0.324261 -1.459189 0.234604 0.662886 -30.445770 0.447181 0.214585 -44.900994 -0.000000 0.000000 0.000000 6.111053 3.157143 -16.754621 0.047445 0.326156 -30.669387 0.413891 0.818578 -42.684612 -0.000000 0.000001 0.000004 -5.627384 7.708059 -14.423271 0.226478 0.278331 -47.132325 0.263818 0.250622 -46.830878 0.000002 0.000002 0.000005 -5.459880 9.874461 2.586596 0.000000 0.000000 0.000000 -40.532535 -25.915541 31.217363 24.790609 110.210764 -23.382704 -8.889565 12.458778 -8.493636 0.272620 9.991984 -10.913339 1.407680 -17.475145 2.991972 3.353961 -13.319392 -8.290905 -0.000000 -0.000001 0.000001 19.443711 11.174476 -13.267048 -0.118589 -0.322784 18.108983 -0.089648 -0.286561 23.329997 -0.000001 0.000002 0.000002 4.319299 2.436251 -4.738287 0.349508 -0.461517 26.963710 0.467886 0.153866 39.118259 -0.000002 0.000003 -0.000001 -7.006190 -10.695773 5.792798 0.111876 -0.089686 26.229280 0.452000 -0.473663 33.338474 -0.000001 0.000000 -0.000001 -19.433727 -20.238503 6.060289 0.224056 -0.086052 36.918026 0.261093 -0.047693 36.545084 -0.000000 -0.000001 0.000001 -35.680949 8.842806 25.586527 41.951698 -7.317229 -9.737999 -7.522692 -2.426699 -9.657563 -0.327605 1.238449 0.837249 0.000000 0.000001 0.000000 -32.697362 -8.231448 -25.898515 45.879040 2.823280 -7.324908 -16.822887 2.999730 21.120301 -0.322816 -0.997456 -0.837141 0.000000 -0.000000 -0.000000 
-1.420920 101.234085 0.904233 1.941021 -58.287557 5.029640 11.072003 0.109741 -2.992066 8.093940 -0.081196 -5.786250 0.000000 0.000000 0.000000 8.133080 -0.021272 -5.670398 -18.473599 24.513730 14.037473 -1.509212 25.960383 -3.156109 0.000000 0.000000 0.000000 -6.237335 -11.503382 -4.274836 0.000000 0.000000 0.000000 -23.016754 9.112610 -36.903652 0.376381 -42.965804 0.192106 22.289810 -6.181484 14.845768 -0.897582 -6.894452 8.882393 2.708436 20.960133 -1.662718 1.047411 2.237660 3.107428 0.000001 -0.000000 0.000001 13.344375 -1.010279 9.546761 -0.165970 0.306019 -32.241433 -0.138973 0.302196 -33.392149 -0.000002 0.000001 0.000000 8.477200 -0.316707 -2.050864 0.237938 0.664724 -31.037670 0.450522 0.215741 -45.492864 0.000002 -0.000001 -0.000000 6.110052 3.163947 -17.346116 0.047837 0.330111 -31.261223 0.419357 0.818138 -43.276451 0.000001 0.000000 0.000000 -5.619459 7.706668 -15.015759 0.228774 0.280231 -47.724127 0.266621 0.251898 -47.422758 -0.000002 0.000001 -0.000000 -5.454988 9.092290 2.875201 0.000000 0.000000 0.000000 -39.552037 -24.929120 32.615267 32.279194 109.755218 -30.680008 -5.944210 12.171686 -6.772567 0.293744 9.798393 -10.982928 1.474602 -17.649533 2.924102 3.380584 -13.503550 -8.372152 -0.000003 -0.000001 -0.000000 19.444036 11.174652 -13.062128 -0.118454 -0.322964 18.314500 -0.088874 -0.286542 23.535519 0.000000 -0.000001 -0.000001 4.315996 2.434222 -4.532572 0.350635 -0.462236 27.169219 0.469024 0.153323 39.323728 0.000000 -0.000000 -0.000000 -7.007869 -10.697463 5.997232 0.111893 -0.091084 26.434818 0.454022 -0.473809 33.543926 0.000003 -0.000001 0.000000 -19.434378 -20.239258 6.263180 0.224710 -0.086853 37.123519 0.261947 -0.048287 36.750615 -0.000000 0.000000 -0.000002 -35.274679 8.509057 25.894101 42.148244 -7.330312 -9.772362 -7.848950 -2.396413 -9.705117 -0.327605 1.238451 0.837249 -0.000000 -0.000002 -0.000000 -32.050779 -8.707004 -25.686755 45.652745 2.976029 -7.291309 -16.967378 2.975522 21.112828 -0.322816 -0.997456 -0.837141 0.000000 0.000002 -0.000000 
-1.754543 101.288567 1.136443 1.344918 -58.258693 4.138820 10.941458 0.083284 -3.034677 7.716263 -0.138315 -5.878632 0.000000 0.000000 0.000000 7.767796 -0.077110 -5.711213 -16.813187 24.183080 14.998419 -2.116841 26.147945 -2.929924 0.000000 -0.000000 0.000000 -6.272272 -11.473021 -4.554318 0.000000 0.000000 0.000000 -22.962490 8.580376 -37.210263 0.522213 -42.740441 0.264852 22.035024 -6.411156 14.252140 -0.807493 -6.305777 9.098584 2.892313 21.501287 -1.455673 1.176688 2.793020 3.369836 -0.000003 -0.000000 0.000001 13.346306 -1.012342 8.916802 -0.165092 0.308701 -32.871535 -0.136509 0.301330 -34.022214 0.000001 0.000001 0.000001 8.471093 -0.308430 -2.680895 0.241577 0.666625 -31.667796 0.454143 0.214417 -46.123021 0.000001 0.000000 -0.000001 6.108669 3.171294 -17.975936 0.048344 0.334419 -31.891318 0.425214 0.817618 -43.906553 0.000002 0.000001 0.000001 -5.612729 7.705883 -15.646336 0.231236 0.282245 -48.354229 0.269686 0.253263 -48.052819 -0.000000 0.000001 0.000003 -5.464605 8.274677 3.337414 0.000000 0.000000 0.000000 -38.620075 -23.706183 34.142873 37.232765 108.739193 -35.689835 -3.949284 11.691898 -4.741125 0.325849 9.501110 -11.089673 1.574329 -17.916681 2.815864 3.421046 -13.786477 -8.496987 -0.000002 -0.000001 -0.000000 19.444445 11.174877 -12.747401 -0.118161 -0.323189 18.630200 -0.087742 -0.286414 23.851159 -0.000001 0.000002 0.000000 4.310945 2.431062 -4.216701 0.352342 -0.463346 27.484862 0.470803 0.152458 39.639324 0.000002 0.000001 -0.000001 -7.005748 -10.700405 6.312112 0.111861 -0.093233 26.750432 0.457076 -0.474067 33.859505 -0.000003 0.000003 -0.000001 -19.434446 -20.236052 6.577731 0.225753 -0.088094 37.439112 0.263293 -0.049216 37.066296 -0.000002 0.000002 -0.000003 -34.832353 8.322655 26.283044 42.264415 -7.489264 -9.808700 -8.176237 -2.369974 -9.727856 -0.327605 1.238444 0.837249 0.000000 0.000000 0.000000 -31.302538 -9.184631 -25.425285 45.398768 3.087334 -7.257959 -17.161550 2.941286 21.103155 -0.322816 -0.997456 -0.837141 0.000000 -0.000002 0.000000 
